<svg width="28" height="27" viewBox="0 0 28 27" fill="none" xmlns="http://www.w3.org/2000/svg">
<path d="M14 7.16327C12.7003 7.16327 11.4298 7.53491 10.3491 8.2312C9.26845 8.92749 8.42617 9.91715 7.92879 11.075C7.43142 12.2329 7.30128 13.507 7.55484 14.7362C7.8084 15.9654 8.43427 17.0945 9.3533 17.9807C10.2723 18.867 11.4432 19.4705 12.718 19.715C13.9927 19.9595 15.314 19.834 16.5148 19.3544C17.7155 18.8748 18.7419 18.0626 19.4639 17.0205C20.186 15.9784 20.5714 14.7533 20.5714 13.5C20.5695 11.82 19.8765 10.2093 18.6445 9.02135C17.4126 7.83339 15.7422 7.16516 14 7.16327ZM14 18.1837C13.0393 18.1837 12.1003 17.909 11.3015 17.3943C10.5028 16.8797 9.88021 16.1482 9.51259 15.2924C9.14496 14.4365 9.04877 13.4948 9.23619 12.5863C9.4236 11.6777 9.8862 10.8432 10.5655 10.1881C11.2448 9.53312 12.1102 9.08704 13.0524 8.90632C13.9946 8.7256 14.9712 8.81835 15.8587 9.17285C16.7463 9.52735 17.5049 10.1277 18.0386 10.8979C18.5723 11.6681 18.8571 12.5737 18.8571 13.5C18.8557 14.7418 18.3435 15.9322 17.4329 16.8103C16.5223 17.6883 15.2877 18.1823 14 18.1837ZM20.2857 0H7.71429C5.66905 0.00226048 3.70825 0.786712 2.26205 2.18126C0.81585 3.57581 0.0023442 5.46658 0 7.43878V19.5612C0.0023442 21.5334 0.81585 23.4242 2.26205 24.8187C3.70825 26.2133 5.66905 26.9977 7.71429 27H20.2857C22.331 26.9977 24.2917 26.2133 25.738 24.8187C27.1842 23.4242 27.9977 21.5334 28 19.5612V7.43878C27.9977 5.46658 27.1842 3.57581 25.738 2.18126C24.2917 0.786712 22.331 0.00226048 20.2857 0ZM26.2857 19.5612C26.2839 21.0952 25.6512 22.5658 24.5264 23.6504C23.4016 24.7351 21.8765 25.3452 20.2857 25.3469H7.71429C6.12353 25.3452 4.59844 24.7351 3.47361 23.6504C2.34877 22.5658 1.71606 21.0952 1.71429 19.5612V7.43878C1.71606 5.90483 2.34877 4.43421 3.47361 3.34955C4.59844 2.26489 6.12353 1.65477 7.71429 1.65306H20.2857C21.8765 1.65477 23.4016 2.26489 24.5264 3.34955C25.6512 4.43421 26.2839 5.90483 26.2857 7.43878V19.5612ZM22.8571 6.33673C22.8571 6.60919 22.7734 6.87552 22.6164 7.10206C22.4594 7.3286 22.2363 7.50516 21.9753 7.60943C21.7142 7.71369 21.427 7.74097 21.1499 7.68782C20.8728 7.63466 20.6182 7.50346 20.4184 7.31081C20.2186 7.11816 20.0826 6.8727 20.0275 6.60548C19.9723 6.33826 20.0006 6.06128 20.1087 5.80957C20.2169 5.55785 20.4 5.34271 20.6349 5.19134C20.8698 5.03998 21.146 4.95918 21.4286 4.95918C21.8073 4.95962 22.1704 5.1049 22.4382 5.36314C22.706 5.62139 22.8567 5.97152 22.8571 6.33673Z" fill="black"/>
</svg>
