<svg width="42" height="34" viewBox="0 0 42 34" fill="none" xmlns="http://www.w3.org/2000/svg">
<g clip-path="url(#clip0_838_1386)">
<path d="M36.378 11.7276V11.4743L36.1559 11.5961L21.2754 19.7571C21.1419 19.8303 20.9936 19.8728 20.8415 19.8814C20.6906 19.8899 20.5397 19.8649 20.3997 19.8082L20.2886 19.7559L5.41214 11.5952L5.19 11.4733V11.7267V26.1C5.19 26.8206 5.4771 27.5117 5.98799 28.0211C6.49887 28.5306 7.19169 28.8167 7.914 28.8167H33.654C34.3763 28.8167 35.0691 28.5306 35.58 28.0211C36.0909 27.5117 36.378 26.8206 36.378 26.1V11.7276ZM5.19 9.06573V9.15455L5.26788 9.19726L20.7119 17.6663L20.784 17.7059L20.8561 17.6663L36.3001 9.19632L36.378 9.15361V9.0648V7.9C36.378 7.17936 36.0909 6.48832 35.58 5.97888C35.0691 5.46945 34.3763 5.18333 33.654 5.18333H7.914C7.19169 5.18333 6.49887 5.46945 5.98799 5.97888C5.4771 6.48832 5.19 7.17936 5.19 7.9V9.06573ZM33.654 3.15C36.286 3.15 38.418 5.27658 38.418 7.9V26.1C38.418 28.7234 36.286 30.85 33.654 30.85H7.914C6.65037 30.85 5.43858 30.3495 4.54519 29.4586C3.65182 28.5678 3.15 27.3596 3.15 26.1V7.9C3.15 5.27658 5.28204 3.15 7.914 3.15H33.654Z" fill="black" stroke="#FFFAF3" stroke-width="0.3"/>
</g>
<rect x="1.5" y="1.5" width="39" height="31" stroke="#FFFAF3" stroke-width="3"/>
<defs>
<clipPath id="clip0_838_1386">
<rect x="3" y="3" width="36" height="28" fill="white"/>
</clipPath>
</defs>
</svg>
