<svg width="41" height="27" viewBox="0 0 41 27" fill="none" xmlns="http://www.w3.org/2000/svg">
<path d="M0 3.7145C0 2.35651 0.783267 1.62426 2.3498 1.51775L8.38636 1.55769C8.7915 1.55769 9.06159 1.7574 9.19664 2.1568C9.81785 4.15385 10.5133 5.87796 11.2831 7.32914C12.0529 8.78032 13.059 10.4512 14.3014 12.3417C14.4094 12.5814 14.585 12.7012 14.8281 12.7012C15.0171 12.7012 15.1657 12.608 15.2737 12.4216L15.3953 11.9822L15.4358 5.07248C15.4358 4.59319 15.321 4.27367 15.0914 4.1139C14.8618 3.95414 14.4364 3.83432 13.8152 3.75444C13.3291 3.67456 13.086 3.38166 13.086 2.87574C13.086 2.76923 13.0995 2.68935 13.1265 2.63609C13.6937 0.905325 15.3142 0.0399408 17.9881 0.0399408L20.2569 0C21.2833 0 22.1341 0.252959 22.8093 0.758876C23.4845 1.26479 23.8221 2.06361 23.8221 3.15533V12.2219C24.0112 12.355 24.1868 12.4216 24.3488 12.4216C24.754 12.4216 25.1051 12.182 25.4022 11.7027C28.3732 7.60207 29.9802 4.85947 30.2233 3.47485C30.2233 3.44822 30.2503 3.38166 30.3043 3.27515C30.4934 2.87574 30.804 2.52959 31.2362 2.23669C31.6683 1.94379 32.0464 1.74408 32.3706 1.63757C32.4786 1.58432 32.6001 1.55769 32.7352 1.55769H39.0148L39.42 1.59763C39.9601 1.59763 40.3788 1.85059 40.6759 2.35651C40.7839 2.51627 40.8582 2.68935 40.8987 2.87574C40.9392 3.06213 40.9662 3.24852 40.9797 3.43491C40.9932 3.6213 41 3.72781 41 3.75444V4.03402C40.8109 5.12574 40.3315 6.29068 39.5618 7.52885C38.792 8.76701 37.8129 10.105 36.6245 11.5429C35.4361 12.9808 34.6933 13.926 34.3962 14.3787C34.1532 14.6982 34.0316 14.9911 34.0316 15.2574C34.0316 15.4704 34.1397 15.7101 34.3557 15.9763L40.2708 23.3254C40.5949 23.7515 40.7569 24.2175 40.7569 24.7234C40.7569 25.3358 40.5138 25.8417 40.0277 26.2411C39.5415 26.6405 38.9608 26.8669 38.2856 26.9201L37.5968 26.9601H31.4387C31.4117 26.9601 31.3577 26.9667 31.2767 26.98C31.1957 26.9933 31.1416 27 31.1146 27C30.5204 27 29.9667 26.747 29.4536 26.2411C29.2645 26.0281 27.9951 24.4571 25.6453 21.5281C25.5102 21.3417 25.3211 21.1686 25.0781 21.0089C24.97 21.4349 24.8282 22.0473 24.6527 22.8462C24.4771 23.645 24.3488 24.2175 24.2678 24.5636L24.1462 25.2426C23.8762 26.1746 23.309 26.7337 22.4447 26.9201L21.8775 26.9601H17.9071C15.6653 26.9601 13.4303 25.9482 11.2021 23.9246C8.97381 21.9009 6.96838 19.2848 5.18577 16.0762C3.40316 12.8676 1.74209 9.13314 0.202569 4.87278C0.0675231 4.52663 0 4.14053 0 3.7145ZM24.3488 14.0592C23.7816 14.0592 23.2684 13.9061 22.8093 13.5999C22.3501 13.2936 22.1206 12.8743 22.1206 12.3417V3.15533C22.1206 2.62278 21.9855 2.24334 21.7154 2.01701C21.4453 1.79068 20.9727 1.67751 20.2974 1.67751L17.9881 1.7574C16.8267 1.7574 15.9489 1.9571 15.3547 2.35651C16.5431 2.91568 17.1374 3.82101 17.1374 5.07248V12.1021C17.0833 12.7678 16.8132 13.3203 16.3271 13.7596C15.8409 14.199 15.3007 14.4186 14.7065 14.4186C13.8962 14.4186 13.275 14.0325 12.8429 13.2604C10.7362 10.1183 9.16963 7.13609 8.14328 4.31361L7.77866 3.27515L2.39032 3.23521C2.0392 3.23521 1.84338 3.25518 1.80287 3.29512C1.76235 3.33506 1.74209 3.44822 1.74209 3.63462C1.74209 3.87426 1.7691 4.12722 1.82312 4.39349L2.67391 6.63018C4.94269 12.4083 7.40728 16.9615 10.0677 20.2899C12.7281 23.6183 15.3412 25.2825 17.9071 25.2825H21.9585C22.1206 25.2825 22.2421 25.2359 22.3231 25.1427C22.4042 25.0496 22.4717 24.8698 22.5257 24.6035L22.6067 24.2041L23.3765 20.6893C23.5926 20.2101 23.7816 19.8905 23.9437 19.7308C24.2408 19.4379 24.5919 19.2914 24.997 19.2914C25.6453 19.2914 26.307 19.6775 26.9822 20.4497L30.4259 24.7633C30.642 25.1095 30.8715 25.2825 31.1146 25.2825H37.7994C38.6097 25.2825 39.0148 25.0828 39.0148 24.6834C39.0148 24.5503 38.9743 24.4172 38.8933 24.284L33.0188 17.0547C32.5596 16.4956 32.33 15.8964 32.33 15.2574C32.33 14.6183 32.5461 14.0059 32.9783 13.4201C33.3294 12.8876 34.0114 12.0022 35.0242 10.7641C36.0371 9.52589 36.9216 8.3676 37.6779 7.2892C38.4341 6.2108 38.9338 5.23225 39.1769 4.35355L39.2984 3.83432C39.2714 3.78106 39.2579 3.69453 39.2579 3.5747C39.2579 3.45488 39.2444 3.35503 39.2174 3.27515H32.8567C32.4516 3.43491 32.1275 3.67456 31.8844 3.99408L31.6413 4.75296C30.9661 6.59024 29.197 9.42603 26.334 13.2604C25.7668 13.7929 25.1051 14.0592 24.3488 14.0592Z" fill="black"/>
</svg>
